<svg width="63" height="63" fill="none" xmlns="http://www.w3.org/2000/svg"><path fill-rule="evenodd" clip-rule="evenodd" d="M50.79 58.834a8.604 8.604 0 100-17.209 8.604 8.604 0 000 17.209zm0 3.441a12.045 12.045 0 100-24.09 12.045 12.045 0 000 24.09z" fill="#FFA801"/><path fill-rule="evenodd" clip-rule="evenodd" d="M50.79 44.206a1.72 1.72 0 011.72 1.721v3.59l1.217 1.217a1.72 1.72 0 01-2.434 2.433l-2.225-2.225v-5.015a1.72 1.72 0 011.721-1.72z" fill="#FFA801"/><path fill-rule="evenodd" clip-rule="evenodd" d="M14.652 29.58H11.21v3.441h3.442v-3.442zm-3.442-3.442a3.442 3.442 0 00-3.442 3.441v3.442a3.442 3.442 0 003.442 3.442h3.442a3.442 3.442 0 003.441-3.442v-3.442a3.442 3.442 0 00-3.441-3.441H11.21zm17.208 3.442h-3.441v3.441h3.441v-3.442zm-3.441-3.442a3.442 3.442 0 00-3.442 3.441v3.442a3.441 3.441 0 003.442 3.442h3.441a3.442 3.442 0 003.442-3.442v-3.442a3.442 3.442 0 00-3.442-3.441h-3.441zm17.208 3.442h-3.442v3.441h3.442v-3.442zm-3.442-3.442a3.442 3.442 0 00-3.441 3.441v3.442a3.441 3.441 0 003.441 3.442h3.442a3.441 3.441 0 003.442-3.442v-3.442a3.442 3.442 0 00-3.442-3.441h-3.442zM14.652 43.346H11.21v3.442h3.442v-3.442zm-3.442-3.442a3.442 3.442 0 00-3.442 3.442v3.442a3.442 3.442 0 003.442 3.441h3.442a3.442 3.442 0 003.441-3.441v-3.442a3.442 3.442 0 00-3.441-3.442H11.21zm17.208 3.442h-3.441v3.442h3.441v-3.442zm-3.441-3.442a3.442 3.442 0 00-3.442 3.442v3.442a3.441 3.441 0 003.442 3.441h3.441a3.442 3.442 0 003.442-3.441v-3.442a3.442 3.442 0 00-3.442-3.442h-3.441z" fill="#fff"/><path fill-rule="evenodd" clip-rule="evenodd" d="M4.327 10.65a1.72 1.72 0 011.72-1.72h8.605V5.487H6.048A5.163 5.163 0 00.885 10.65v41.3a5.162 5.162 0 005.163 5.163h34.855a11.996 11.996 0 01-1.66-3.442H6.047a1.72 1.72 0 01-1.721-1.72v-41.3zm44.741 27.654a12.15 12.15 0 013.442 0V10.65a5.162 5.162 0 00-5.163-5.162h-5.162v3.441h5.162a1.72 1.72 0 011.721 1.721v27.654zM18.093 8.93H36.27V5.488H18.093v3.441z" fill="#fff"/><path fill-rule="evenodd" clip-rule="evenodd" d="M52.51 20.975H4.327v-3.441H52.51v3.441z" fill="#fff"/><path d="M11.21 2.046a1.72 1.72 0 013.442 0v8.604a1.72 1.72 0 11-3.442 0V2.046zm24.092 0a1.72 1.72 0 113.441 0v8.604a1.72 1.72 0 11-3.441 0V2.046z" fill="#fff"/></svg>